<svg width="10" height="10" viewBox="0 0 10 10" fill="none" xmlns="http://www.w3.org/2000/svg">
<path d="M0 3C0 1.34315 1.34315 0 3 0H7C8.65685 0 10 1.34315 10 3V7C10 8.65685 8.65685 10 7 10H3C1.34315 10 0 8.65685 0 7V3Z" fill="#4254FE"/>
<path d="M2 3.5C2 2.67157 2.67157 2 3.5 2C4.32843 2 5 2.67157 5 3.5C5 4.32843 4.32843 5 3.5 5C2.67157 5 2 4.32843 2 3.5Z" fill="white"/>
<path fill-rule="evenodd" clip-rule="evenodd" d="M8.5 3.11691V5.8831L3.5 8.8831V6.11691L8.5 3.11691ZM4.5 6.6831V7.11691L7.5 5.31691V4.8831L4.5 6.6831Z" fill="white"/>
</svg>
