<svg width="22" height="10" viewBox="0 0 22 10" fill="none" xmlns="http://www.w3.org/2000/svg">
<path fill-rule="evenodd" clip-rule="evenodd" d="M10.5396 0H14.2184L15.8812 4.05666L17.5439 0H21.2228V10H17.69V8.43769L17.08 9.96027H14.6815L14.0724 8.43415V10H10.5396V0ZM13.1402 3.75265H13.2077L15.3131 9.02807H16.4492L18.5546 3.77251H18.6222V9.0678H20.2906V0.932203H18.1693L15.9289 6.39831H15.8335L13.593 0.932203H11.4718V9.0678H13.1402V3.75265Z" fill="black"/>
<path d="M0 3C0 1.34315 1.34315 0 3 0H7C8.65685 0 10 1.34315 10 3V7C10 8.65685 8.65685 10 7 10H3C1.34315 10 0 8.65685 0 7V3Z" fill="black"/>
<path fill-rule="evenodd" clip-rule="evenodd" d="M8.5 3.11691V5.8831L3.5 8.8831V6.11691L8.5 3.11691ZM4.5 6.6831V7.11691L7.5 5.31691V4.8831L4.5 6.6831Z" fill="white"/>
<path d="M2 3.5C2 2.67157 2.67157 2 3.5 2C4.32843 2 5 2.67157 5 3.5C5 4.32843 4.32843 5 3.5 5C2.67157 5 2 4.32843 2 3.5Z" fill="white"/>
</svg>
