<svg width="99" height="12" viewBox="0 0 99 12" fill="black" xmlns="http://www.w3.org/2000/svg">
<path d="M7.188 3.50401H7.152L6.54 4.72801L4.908 7.69201L3.312 4.74001L2.676 3.42001H2.64V9.00001H0.924V0.624011H2.856L4.908 4.54801H4.932L6.96 0.624011H8.904V9.00001H7.188V3.50401Z"/>
<path d="M15.916 9.00001L15.316 7.00801H12.52L11.92 9.00001H10.072L12.832 0.624011H15.088L17.812 9.00001H15.916ZM13.936 2.28001H13.876L12.952 5.46001H14.872L13.936 2.28001Z"/>
<path d="M23.9236 7.66801H23.8636C23.7996 8.09201 23.5836 8.44401 23.2156 8.72401C22.8476 9.00401 22.3476 9.14401 21.7156 9.14401C21.2356 9.14401 20.7876 9.05201 20.3716 8.86801C19.9556 8.68401 19.5916 8.41201 19.2796 8.05201C18.9676 7.69201 18.7236 7.24401 18.5476 6.70801C18.3716 6.17201 18.2836 5.55201 18.2836 4.84801C18.2836 4.14401 18.3756 3.52001 18.5596 2.97601C18.7436 2.43201 18.9996 1.97601 19.3276 1.60801C19.6636 1.24001 20.0636 0.960011 20.5276 0.768011C20.9916 0.576011 21.5076 0.480011 22.0756 0.480011C22.8276 0.480011 23.4756 0.644011 24.0196 0.972011C24.5636 1.29201 24.9916 1.77601 25.3036 2.42401L23.8156 3.27601C23.6876 2.94801 23.4876 2.67201 23.2156 2.44801C22.9436 2.21601 22.5636 2.10001 22.0756 2.10001C21.5076 2.10001 21.0556 2.26401 20.7196 2.59201C20.3836 2.92001 20.2156 3.43601 20.2156 4.14001V5.48401C20.2156 6.18001 20.3836 6.69601 20.7196 7.03201C21.0556 7.36001 21.5076 7.52401 22.0756 7.52401C22.2996 7.52401 22.5116 7.50001 22.7116 7.45201C22.9116 7.39601 23.0876 7.31601 23.2396 7.21201C23.3916 7.10001 23.5076 6.96801 23.5876 6.81601C23.6756 6.66401 23.7196 6.48401 23.7196 6.27601V5.85601H22.1596V4.33201H25.4596V9.00001H23.9236V7.66801Z"/>
<path d="M32.3926 9.00001L31.7926 7.00801H28.9966L28.3966 9.00001H26.5486L29.3086 0.624011H31.5646L34.2886 9.00001H32.3926ZM30.4126 2.28001H30.3526L29.4286 5.46001H31.3486L30.4126 2.28001Z"/>
<path d="M36.6557 9.00001V5.72401L33.7877 0.624011H35.8277L37.6277 3.96001H37.6517L39.3797 0.624011H41.3597L38.4917 5.71201V9.00001H36.6557Z"/>
<path d="M46.7129 9.00001L46.1129 7.00801H43.3169L42.7169 9.00001H40.8689L43.6289 0.624011H45.8849L48.6089 9.00001H46.7129ZM44.7329 2.28001H44.6729L43.7489 5.46001H45.6689L44.7329 2.28001Z"/>
<path d="M54.7205 7.66801H54.6605C54.5965 8.09201 54.3805 8.44401 54.0125 8.72401C53.6445 9.00401 53.1445 9.14401 52.5125 9.14401C52.0325 9.14401 51.5845 9.05201 51.1685 8.86801C50.7525 8.68401 50.3885 8.41201 50.0765 8.05201C49.7645 7.69201 49.5205 7.24401 49.3445 6.70801C49.1685 6.17201 49.0805 5.55201 49.0805 4.84801C49.0805 4.14401 49.1725 3.52001 49.3565 2.97601C49.5405 2.43201 49.7965 1.97601 50.1245 1.60801C50.4605 1.24001 50.8605 0.960011 51.3245 0.768011C51.7885 0.576011 52.3045 0.480011 52.8725 0.480011C53.6245 0.480011 54.2725 0.644011 54.8165 0.972011C55.3605 1.29201 55.7885 1.77601 56.1005 2.42401L54.6125 3.27601C54.4845 2.94801 54.2845 2.67201 54.0125 2.44801C53.7405 2.21601 53.3605 2.10001 52.8725 2.10001C52.3045 2.10001 51.8525 2.26401 51.5165 2.59201C51.1805 2.92001 51.0125 3.43601 51.0125 4.14001V5.48401C51.0125 6.18001 51.1805 6.69601 51.5165 7.03201C51.8525 7.36001 52.3045 7.52401 52.8725 7.52401C53.0965 7.52401 53.3085 7.50001 53.5085 7.45201C53.7085 7.39601 53.8845 7.31601 54.0365 7.21201C54.1885 7.10001 54.3045 6.96801 54.3845 6.81601C54.4725 6.66401 54.5165 6.48401 54.5165 6.27601V5.85601H52.9565V4.33201H56.2565V9.00001H54.7205V7.66801Z"/>
<path d="M63.1895 9.00001L62.5895 7.00801H59.7935L59.1935 9.00001H57.3455L60.1055 0.624011H62.3615L65.0855 9.00001H63.1895ZM61.2095 2.28001H61.1495L60.2255 5.46001H62.1455L61.2095 2.28001Z"/>
<path d="M69.0803 9.00001V0.624011H70.9043V7.38001H74.0963V9.00001H69.0803Z"/>
<path d="M80.8027 9.00001L80.2028 7.00801H77.4068L76.8067 9.00001H74.9587L77.7188 0.624011H79.9747L82.6988 9.00001H80.8027ZM78.8228 2.28001H78.7627L77.8388 5.46001H79.7588L78.8228 2.28001Z"/>
<path d="M83.8576 0.624011H87.9256C88.6216 0.624011 89.1616 0.820011 89.5456 1.21201C89.9376 1.60401 90.1336 2.12401 90.1336 2.77201C90.1336 3.09201 90.0896 3.36401 90.0016 3.58801C89.9216 3.81201 89.8096 3.99601 89.6656 4.14001C89.5296 4.28401 89.3656 4.39201 89.1736 4.46401C88.9896 4.52801 88.7896 4.56401 88.5736 4.57201V4.64401C88.7736 4.64401 88.9816 4.68001 89.1976 4.75201C89.4216 4.82401 89.6256 4.94001 89.8096 5.10001C89.9936 5.25201 90.1456 5.45201 90.2656 5.70001C90.3936 5.94801 90.4576 6.25201 90.4576 6.61201C90.4576 6.94001 90.4016 7.25201 90.2896 7.54801C90.1856 7.83601 90.0376 8.08801 89.8456 8.30401C89.6536 8.52001 89.4256 8.69201 89.1616 8.82001C88.8976 8.94001 88.6096 9.00001 88.2976 9.00001H83.8576V0.624011ZM85.6816 7.46401H87.7816C88.0216 7.46401 88.2096 7.40001 88.3456 7.27201C88.4896 7.13601 88.5616 6.94801 88.5616 6.70801V6.30001C88.5616 6.06001 88.4896 5.87601 88.3456 5.74801C88.2096 5.61201 88.0216 5.54401 87.7816 5.54401H85.6816V7.46401ZM85.6816 4.05601H87.4936C87.7336 4.05601 87.9216 3.98801 88.0576 3.85201C88.1936 3.71601 88.2616 3.52801 88.2616 3.28801V2.92801C88.2616 2.68801 88.1936 2.50001 88.0576 2.36401C87.9216 2.22801 87.7336 2.16001 87.4936 2.16001H85.6816V4.05601Z"/>
<path d="M94.5735 9.14401C93.8375 9.14401 93.2135 9.02001 92.7015 8.77201C92.1895 8.51601 91.7535 8.18801 91.3935 7.78801L92.5935 6.57601C93.1615 7.21601 93.8615 7.53601 94.6935 7.53601C95.1415 7.53601 95.4735 7.44401 95.6895 7.26001C95.9055 7.07601 96.0135 6.83201 96.0135 6.52801C96.0135 6.29601 95.9495 6.10401 95.8215 5.95201C95.6935 5.79201 95.4335 5.68401 95.0415 5.62801L94.2135 5.52001C93.3255 5.40801 92.6735 5.14001 92.2575 4.71601C91.8495 4.29201 91.6455 3.72801 91.6455 3.02401C91.6455 2.64801 91.7175 2.30401 91.8615 1.99201C92.0055 1.68001 92.2095 1.41201 92.4735 1.18801C92.7455 0.964011 93.0735 0.792011 93.4575 0.672011C93.8495 0.544011 94.2935 0.480011 94.7895 0.480011C95.4215 0.480011 95.9775 0.580011 96.4575 0.780011C96.9375 0.980011 97.3495 1.27201 97.6935 1.65601L96.4815 2.88001C96.2815 2.64801 96.0375 2.46001 95.7495 2.31601C95.4695 2.16401 95.1135 2.08801 94.6815 2.08801C94.2735 2.08801 93.9695 2.16001 93.7695 2.30401C93.5695 2.44801 93.4695 2.64801 93.4695 2.90401C93.4695 3.19201 93.5455 3.40001 93.6975 3.52801C93.8575 3.65601 94.1135 3.74801 94.4655 3.80401L95.2935 3.93601C96.1575 4.07201 96.7975 4.34001 97.2135 4.74001C97.6295 5.13201 97.8375 5.69201 97.8375 6.42001C97.8375 6.82001 97.7655 7.18801 97.6215 7.52401C97.4775 7.86001 97.2655 8.14801 96.9855 8.38801C96.7135 8.62801 96.3735 8.81601 95.9655 8.95201C95.5575 9.08001 95.0935 9.14401 94.5735 9.14401Z"/>
<path d="M0 10.392H98.4255V11.592H0V10.392Z"/>
</svg>
