<?xml version="1.0" encoding="UTF-8" standalone="no"?>
<svg width="65" height="12" viewBox="0 0 65 12" fill="none" xmlns="http://www.w3.org/2000/svg">
<path d="M5.75853 0.27272H8.0341L10.4375 6.13636H10.5398L12.9432 0.27272H15.2188V8.99999H13.429V3.3196H13.3565L11.098 8.95738H9.87927L7.62075 3.29829H7.5483V8.99999H5.75853V0.27272Z" fill="#476DF3"/>
<path d="M18.5714 9.12357C18.1538 9.12357 17.7816 9.05113 17.4549 8.90624C17.1282 8.75852 16.8697 8.54119 16.6793 8.25425C16.4918 7.96448 16.3981 7.60369 16.3981 7.17187C16.3981 6.80823 16.4649 6.50283 16.5984 6.25568C16.7319 6.00852 16.9137 5.80965 17.1438 5.65908C17.3739 5.50852 17.6353 5.39488 17.9279 5.31818C18.2234 5.24147 18.533 5.18749 18.8569 5.15624C19.2376 5.11647 19.5444 5.07954 19.7774 5.04545C20.0103 5.00852 20.1793 4.95454 20.2845 4.88352C20.3896 4.81249 20.4421 4.70738 20.4421 4.56818V4.54261C20.4421 4.27272 20.3569 4.06391 20.1864 3.91619C20.0188 3.76846 19.7802 3.6946 19.4705 3.6946C19.1438 3.6946 18.8839 3.76704 18.6907 3.91193C18.4975 4.05397 18.3697 4.23295 18.3072 4.44886L16.6282 4.31249C16.7134 3.91477 16.881 3.57102 17.131 3.28124C17.381 2.98863 17.7035 2.7642 18.0984 2.60795C18.4961 2.44886 18.9563 2.36931 19.4791 2.36931C19.8427 2.36931 20.1907 2.41193 20.5231 2.49715C20.8583 2.58238 21.1552 2.71448 21.4137 2.89346C21.6751 3.07244 21.881 3.30255 22.0316 3.5838C22.1822 3.86221 22.2575 4.19602 22.2575 4.58522V8.99999H20.5359V8.09232H20.4847C20.3796 8.29687 20.239 8.47727 20.0629 8.63352C19.8867 8.78693 19.6751 8.90766 19.4279 8.99573C19.1808 9.08096 18.8952 9.12357 18.5714 9.12357ZM19.0913 7.87073C19.3583 7.87073 19.5941 7.81817 19.7987 7.71306C20.0032 7.60511 20.1637 7.46022 20.2802 7.2784C20.3967 7.09658 20.4549 6.89062 20.4549 6.6605V5.9659C20.3981 6.00283 20.32 6.03693 20.2205 6.06818C20.1239 6.09658 20.0146 6.12357 19.8924 6.14914C19.7702 6.17187 19.6481 6.19317 19.5259 6.21306C19.4038 6.23011 19.293 6.24573 19.1935 6.25994C18.9805 6.29119 18.7944 6.3409 18.6353 6.40908C18.4762 6.47727 18.3526 6.5696 18.2646 6.68607C18.1765 6.79971 18.1325 6.94175 18.1325 7.11221C18.1325 7.35937 18.222 7.54829 18.4009 7.67897C18.5827 7.80681 18.8129 7.87073 19.0913 7.87073Z" fill="#476DF3"/>
<path d="M26.6147 11.5909C26.0266 11.5909 25.5224 11.5099 25.1019 11.348C24.6843 11.1889 24.3519 10.9716 24.1048 10.696C23.8576 10.4204 23.6971 10.1108 23.6232 9.76704L25.3022 9.54119C25.3533 9.67187 25.4343 9.79403 25.5451 9.90766C25.6559 10.0213 25.8022 10.1122 25.984 10.1804C26.1687 10.2514 26.3931 10.2869 26.6573 10.2869C27.0522 10.2869 27.3775 10.1903 27.6332 9.99715C27.8917 9.80681 28.021 9.48721 28.021 9.03835V7.8409H27.9443C27.8647 8.02272 27.7454 8.1946 27.5863 8.35653C27.4272 8.51846 27.2227 8.65056 26.9727 8.75283C26.7227 8.85511 26.4244 8.90624 26.0778 8.90624C25.5863 8.90624 25.1389 8.79261 24.7354 8.56533C24.3349 8.33522 24.0153 7.98437 23.7766 7.51278C23.5408 7.03835 23.4229 6.43891 23.4229 5.71448C23.4229 4.97301 23.5437 4.35369 23.7852 3.85653C24.0266 3.35937 24.3477 2.98721 24.7482 2.74005C25.1516 2.49289 25.5934 2.36931 26.0735 2.36931C26.44 2.36931 26.7468 2.43181 26.994 2.55681C27.2411 2.67897 27.44 2.83238 27.5906 3.01704C27.744 3.19886 27.8619 3.37783 27.9443 3.55397H28.0124V2.45454H29.815V9.06391C29.815 9.62073 29.6786 10.0866 29.4059 10.4616C29.1332 10.8366 28.7553 11.1179 28.2724 11.3054C27.7923 11.4957 27.2397 11.5909 26.6147 11.5909ZM26.6531 7.54261C26.9457 7.54261 27.1928 7.47016 27.3945 7.32528C27.5991 7.17755 27.7553 6.96732 27.8633 6.6946C27.9741 6.41903 28.0295 6.08948 28.0295 5.70596C28.0295 5.32244 27.9755 4.99005 27.8675 4.7088C27.7596 4.42471 27.6033 4.20454 27.3988 4.04829C27.1943 3.89204 26.9457 3.81391 26.6531 3.81391C26.3548 3.81391 26.1033 3.89488 25.8988 4.05681C25.6943 4.2159 25.5394 4.43749 25.4343 4.72158C25.3292 5.00568 25.2766 5.3338 25.2766 5.70596C25.2766 6.0838 25.3292 6.41051 25.4343 6.68607C25.5423 6.9588 25.6971 7.17045 25.8988 7.32102C26.1033 7.46874 26.3548 7.54261 26.6531 7.54261Z" fill="#476DF3"/>
<path d="M33.1261 9.12357C32.7085 9.12357 32.3363 9.05113 32.0096 8.90624C31.6829 8.75852 31.4244 8.54119 31.234 8.25425C31.0465 7.96448 30.9528 7.60369 30.9528 7.17187C30.9528 6.80823 31.0195 6.50283 31.1531 6.25568C31.2866 6.00852 31.4684 5.80965 31.6985 5.65908C31.9286 5.50852 32.19 5.39488 32.4826 5.31818C32.7781 5.24147 33.0877 5.18749 33.4116 5.15624C33.7923 5.11647 34.0991 5.07954 34.332 5.04545C34.565 5.00852 34.734 4.95454 34.8391 4.88352C34.9443 4.81249 34.9968 4.70738 34.9968 4.56818V4.54261C34.9968 4.27272 34.9116 4.06391 34.7411 3.91619C34.5735 3.76846 34.3349 3.6946 34.0252 3.6946C33.6985 3.6946 33.4386 3.76704 33.2454 3.91193C33.0522 4.05397 32.9244 4.23295 32.8619 4.44886L31.1829 4.31249C31.2681 3.91477 31.4357 3.57102 31.6857 3.28124C31.9357 2.98863 32.2582 2.7642 32.6531 2.60795C33.0508 2.44886 33.511 2.36931 34.0337 2.36931C34.3974 2.36931 34.7454 2.41193 35.0778 2.49715C35.413 2.58238 35.7099 2.71448 35.9684 2.89346C36.2298 3.07244 36.4357 3.30255 36.5863 3.5838C36.7369 3.86221 36.8122 4.19602 36.8122 4.58522V8.99999H35.0906V8.09232H35.0394C34.9343 8.29687 34.7937 8.47727 34.6175 8.63352C34.4414 8.78693 34.2298 8.90766 33.9826 8.99573C33.7354 9.08096 33.4499 9.12357 33.1261 9.12357ZM33.646 7.87073C33.913 7.87073 34.1488 7.81817 34.3533 7.71306C34.5579 7.60511 34.7184 7.46022 34.8349 7.2784C34.9514 7.09658 35.0096 6.89062 35.0096 6.6605V5.9659C34.9528 6.00283 34.8747 6.03693 34.7752 6.06818C34.6786 6.09658 34.5693 6.12357 34.4471 6.14914C34.3249 6.17187 34.2028 6.19317 34.0806 6.21306C33.9585 6.23011 33.8477 6.24573 33.7482 6.25994C33.5352 6.29119 33.3491 6.3409 33.19 6.40908C33.0309 6.47727 32.9073 6.5696 32.8193 6.68607C32.7312 6.79971 32.6872 6.94175 32.6872 7.11221C32.6872 7.35937 32.7766 7.54829 32.9556 7.67897C33.1374 7.80681 33.3676 7.87073 33.646 7.87073Z" fill="#476DF3"/>
<path d="M39.1069 11.4545C38.8768 11.4545 38.6609 11.4361 38.4592 11.3991C38.2603 11.3651 38.0955 11.321 37.9649 11.267L38.3739 9.91193C38.587 9.97727 38.7788 10.0128 38.9492 10.0185C39.1225 10.0241 39.2717 9.98437 39.3967 9.89914C39.5245 9.81391 39.6282 9.66903 39.7077 9.46448L39.8143 9.18749L37.4663 2.45454H39.3754L40.7305 7.26136H40.7987L42.1666 2.45454H44.0884L41.5444 9.70738C41.4222 10.0597 41.256 10.3665 41.0458 10.6278C40.8384 10.892 40.5756 11.0952 40.2575 11.2372C39.9393 11.3821 39.5558 11.4545 39.1069 11.4545Z" fill="#476DF3"/>
<path d="M46.7081 9.12357C46.2905 9.12357 45.9183 9.05113 45.5916 8.90624C45.2649 8.75852 45.0064 8.54119 44.8161 8.25425C44.6286 7.96448 44.5348 7.60369 44.5348 7.17187C44.5348 6.80823 44.6016 6.50283 44.7351 6.25568C44.8686 6.00852 45.0504 5.80965 45.2805 5.65908C45.5107 5.50852 45.772 5.39488 46.0646 5.31818C46.3601 5.24147 46.6698 5.18749 46.9936 5.15624C47.3743 5.11647 47.6811 5.07954 47.9141 5.04545C48.147 5.00852 48.3161 4.95454 48.4212 4.88352C48.5263 4.81249 48.5788 4.70738 48.5788 4.56818V4.54261C48.5788 4.27272 48.4936 4.06391 48.3232 3.91619C48.1555 3.76846 47.9169 3.6946 47.6073 3.6946C47.2805 3.6946 47.0206 3.76704 46.8274 3.91193C46.6342 4.05397 46.5064 4.23295 46.4439 4.44886L44.7649 4.31249C44.8502 3.91477 45.0178 3.57102 45.2678 3.28124C45.5178 2.98863 45.8402 2.7642 46.2351 2.60795C46.6328 2.44886 47.093 2.36931 47.6158 2.36931C47.9794 2.36931 48.3274 2.41193 48.6598 2.49715C48.995 2.58238 49.2919 2.71448 49.5504 2.89346C49.8118 3.07244 50.0178 3.30255 50.1683 3.5838C50.3189 3.86221 50.3942 4.19602 50.3942 4.58522V8.99999H48.6726V8.09232H48.6215C48.5163 8.29687 48.3757 8.47727 48.1996 8.63352C48.0234 8.78693 47.8118 8.90766 47.5646 8.99573C47.3175 9.08096 47.032 9.12357 46.7081 9.12357ZM47.228 7.87073C47.495 7.87073 47.7308 7.81817 47.9354 7.71306C48.1399 7.60511 48.3004 7.46022 48.4169 7.2784C48.5334 7.09658 48.5916 6.89062 48.5916 6.6605V5.9659C48.5348 6.00283 48.4567 6.03693 48.3573 6.06818C48.2607 6.09658 48.1513 6.12357 48.0291 6.14914C47.907 6.17187 47.7848 6.19317 47.6627 6.21306C47.5405 6.23011 47.4297 6.24573 47.3303 6.25994C47.1172 6.29119 46.9311 6.3409 46.772 6.40908C46.6129 6.47727 46.4894 6.5696 46.4013 6.68607C46.3132 6.79971 46.2692 6.94175 46.2692 7.11221C46.2692 7.35937 46.3587 7.54829 46.5377 7.67897C46.7195 7.80681 46.9496 7.87073 47.228 7.87073Z" fill="#476DF3"/>
<path d="M54.7514 11.5909C54.1634 11.5909 53.6591 11.5099 53.2386 11.348C52.821 11.1889 52.4886 10.9716 52.2415 10.696C51.9943 10.4204 51.8338 10.1108 51.76 9.76704L53.4389 9.54119C53.4901 9.67187 53.571 9.79403 53.6818 9.90766C53.7926 10.0213 53.9389 10.1122 54.1207 10.1804C54.3054 10.2514 54.5298 10.2869 54.794 10.2869C55.1889 10.2869 55.5142 10.1903 55.7699 9.99715C56.0284 9.80681 56.1577 9.48721 56.1577 9.03835V7.8409H56.081C56.0014 8.02272 55.8821 8.1946 55.723 8.35653C55.5639 8.51846 55.3594 8.65056 55.1094 8.75283C54.8594 8.85511 54.5611 8.90624 54.2145 8.90624C53.723 8.90624 53.2756 8.79261 52.8722 8.56533C52.4716 8.33522 52.152 7.98437 51.9134 7.51278C51.6776 7.03835 51.5597 6.43891 51.5597 5.71448C51.5597 4.97301 51.6804 4.35369 51.9219 3.85653C52.1634 3.35937 52.4844 2.98721 52.885 2.74005C53.2884 2.49289 53.7301 2.36931 54.2102 2.36931C54.5767 2.36931 54.8835 2.43181 55.1307 2.55681C55.3779 2.67897 55.5767 2.83238 55.7273 3.01704C55.8807 3.19886 55.9986 3.37783 56.081 3.55397H56.1492V2.45454H57.9517V9.06391C57.9517 9.62073 57.8153 10.0866 57.5426 10.4616C57.2699 10.8366 56.8921 11.1179 56.4091 11.3054C55.929 11.4957 55.3764 11.5909 54.7514 11.5909ZM54.7898 7.54261C55.0824 7.54261 55.3296 7.47016 55.5313 7.32528C55.7358 7.17755 55.8921 6.96732 56 6.6946C56.1108 6.41903 56.1662 6.08948 56.1662 5.70596C56.1662 5.32244 56.1122 4.99005 56.0043 4.7088C55.8963 4.42471 55.7401 4.20454 55.5355 4.04829C55.331 3.89204 55.0824 3.81391 54.7898 3.81391C54.4915 3.81391 54.2401 3.89488 54.0355 4.05681C53.831 4.2159 53.6761 4.43749 53.571 4.72158C53.4659 5.00568 53.4134 5.3338 53.4134 5.70596C53.4134 6.0838 53.4659 6.41051 53.571 6.68607C53.679 6.9588 53.8338 7.17045 54.0355 7.32102C54.2401 7.46874 54.4915 7.54261 54.7898 7.54261Z" fill="#476DF3"/>
<path d="M61.2628 9.12357C60.8452 9.12357 60.473 9.05113 60.1463 8.90624C59.8196 8.75852 59.5611 8.54119 59.3707 8.25425C59.1832 7.96448 59.0895 7.60369 59.0895 7.17187C59.0895 6.80823 59.1563 6.50283 59.2898 6.25568C59.4233 6.00852 59.6051 5.80965 59.8352 5.65908C60.0653 5.50852 60.3267 5.39488 60.6193 5.31818C60.9148 5.24147 61.2244 5.18749 61.5483 5.15624C61.929 5.11647 62.2358 5.07954 62.4688 5.04545C62.7017 5.00852 62.8707 4.95454 62.9759 4.88352C63.081 4.81249 63.1335 4.70738 63.1335 4.56818V4.54261C63.1335 4.27272 63.0483 4.06391 62.8778 3.91619C62.7102 3.76846 62.4716 3.6946 62.1619 3.6946C61.8352 3.6946 61.5753 3.76704 61.3821 3.91193C61.1889 4.05397 61.0611 4.23295 60.9986 4.44886L59.3196 4.31249C59.4048 3.91477 59.5725 3.57102 59.8225 3.28124C60.0725 2.98863 60.3949 2.7642 60.7898 2.60795C61.1875 2.44886 61.6477 2.36931 62.1705 2.36931C62.5341 2.36931 62.8821 2.41193 63.2145 2.49715C63.5497 2.58238 63.8466 2.71448 64.1051 2.89346C64.3665 3.07244 64.5725 3.30255 64.723 3.5838C64.8736 3.86221 64.9489 4.19602 64.9489 4.58522V8.99999H63.2273V8.09232H63.1761C63.071 8.29687 62.9304 8.47727 62.7543 8.63352C62.5781 8.78693 62.3665 8.90766 62.1193 8.99573C61.8722 9.08096 61.5867 9.12357 61.2628 9.12357ZM61.7827 7.87073C62.0497 7.87073 62.2855 7.81817 62.4901 7.71306C62.6946 7.60511 62.8551 7.46022 62.9716 7.2784C63.0881 7.09658 63.1463 6.89062 63.1463 6.6605V5.9659C63.0895 6.00283 63.0114 6.03693 62.9119 6.06818C62.8154 6.09658 62.706 6.12357 62.5838 6.14914C62.4617 6.17187 62.3395 6.19317 62.2173 6.21306C62.0952 6.23011 61.9844 6.24573 61.885 6.25994C61.6719 6.29119 61.4858 6.3409 61.3267 6.40908C61.1676 6.47727 61.044 6.5696 60.956 6.68607C60.8679 6.79971 60.8239 6.94175 60.8239 7.11221C60.8239 7.35937 60.9134 7.54829 61.0923 7.67897C61.2742 7.80681 61.5043 7.87073 61.7827 7.87073Z" fill="#476DF3"/>
<path fill-rule="evenodd" clip-rule="evenodd" d="M5 10.5C5 10.2239 5.22386 10 5.5 10H64C64.2761 10 64.5 10.2239 64.5 10.5C64.5 10.7761 64.2761 11 64 11H5.5C5.22386 11 5 10.7761 5 10.5Z" fill="black"/>
<path fill-rule="evenodd" clip-rule="evenodd" d="M2.5 7C2.5 6.72386 2.72386 6.5 3 6.5H61.5C61.7761 6.5 62 6.72386 62 7C62 7.27614 61.7761 7.5 61.5 7.5H3C2.72386 7.5 2.5 7.27614 2.5 7Z" fill="black"/>
<path fill-rule="evenodd" clip-rule="evenodd" d="M0 3.5C0 3.22386 0.223858 3 0.5 3H59C59.2761 3 59.5 3.22386 59.5 3.5C59.5 3.77614 59.2761 4 59 4H0.5C0.223858 4 0 3.77614 0 3.5Z" fill="black"/>
<path d="M5 0H7.27557L9.67898 5.86364H9.78125L12.1847 0H14.4602V8.72727H12.6705V3.04688H12.598L10.3395 8.68466H9.12074L6.86222 3.02557H6.78977V8.72727H5V0Z" fill="#10DC92"/>
<path d="M17.8129 8.85085C17.3952 8.85085 17.0231 8.77841 16.6964 8.63352C16.3697 8.4858 16.1112 8.26847 15.9208 7.98153C15.7333 7.69176 15.6396 7.33097 15.6396 6.89915C15.6396 6.53551 15.7063 6.23011 15.8398 5.98295C15.9734 5.7358 16.1552 5.53693 16.3853 5.38636C16.6154 5.2358 16.8768 5.12216 17.1694 5.04545C17.4648 4.96875 17.7745 4.91477 18.0984 4.88352C18.479 4.84375 18.7859 4.80682 19.0188 4.77273C19.2518 4.7358 19.4208 4.68182 19.5259 4.6108C19.631 4.53977 19.6836 4.43466 19.6836 4.29545V4.26989C19.6836 4 19.5984 3.79119 19.4279 3.64347C19.2603 3.49574 19.0217 3.42188 18.712 3.42188C18.3853 3.42188 18.1254 3.49432 17.9322 3.6392C17.739 3.78125 17.6112 3.96023 17.5487 4.17614L15.8697 4.03977C15.9549 3.64205 16.1225 3.2983 16.3725 3.00852C16.6225 2.71591 16.945 2.49148 17.3398 2.33523C17.7376 2.17614 18.1978 2.09659 18.7205 2.09659C19.0842 2.09659 19.4322 2.1392 19.7646 2.22443C20.0998 2.30966 20.3967 2.44176 20.6552 2.62074C20.9165 2.79972 21.1225 3.02983 21.2731 3.31108C21.4237 3.58949 21.4989 3.9233 21.4989 4.3125V8.72727H19.7773V7.8196H19.7262C19.6211 8.02415 19.4805 8.20455 19.3043 8.3608C19.1282 8.51421 18.9165 8.63494 18.6694 8.72301C18.4222 8.80824 18.1367 8.85085 17.8129 8.85085ZM18.3327 7.59801C18.5998 7.59801 18.8356 7.54545 19.0401 7.44034C19.2447 7.33239 19.4052 7.1875 19.5217 7.00568C19.6381 6.82386 19.6964 6.6179 19.6964 6.38778V5.69318C19.6396 5.73011 19.5614 5.7642 19.462 5.79545C19.3654 5.82386 19.256 5.85085 19.1339 5.87642C19.0117 5.89915 18.8896 5.92045 18.7674 5.94034C18.6452 5.95739 18.5344 5.97301 18.435 5.98722C18.2219 6.01847 18.0359 6.06818 17.8768 6.13636C17.7177 6.20455 17.5941 6.29688 17.506 6.41335C17.418 6.52699 17.3739 6.66903 17.3739 6.83949C17.3739 7.08665 17.4634 7.27557 17.6424 7.40625C17.8242 7.53409 18.0543 7.59801 18.3327 7.59801Z" fill="#10DC92"/>
<path d="M25.8562 11.3182C25.2681 11.3182 24.7638 11.2372 24.3434 11.0753C23.9258 10.9162 23.5934 10.6989 23.3462 10.4233C23.0991 10.1477 22.9386 9.83807 22.8647 9.49432L24.5437 9.26847C24.5948 9.39915 24.6758 9.52131 24.7866 9.63494C24.8974 9.74858 25.0437 9.83949 25.2255 9.90767C25.4102 9.97869 25.6346 10.0142 25.8988 10.0142C26.2937 10.0142 26.619 9.91761 26.8746 9.72443C27.1332 9.53409 27.2624 9.21449 27.2624 8.76562V7.56818H27.1857C27.1062 7.75 26.9869 7.92188 26.8278 8.08381C26.6687 8.24574 26.4641 8.37784 26.2141 8.48011C25.9641 8.58239 25.6658 8.63352 25.3192 8.63352C24.8278 8.63352 24.3803 8.51989 23.9769 8.29261C23.5764 8.0625 23.2567 7.71165 23.0181 7.24006C22.7823 6.76563 22.6644 6.16619 22.6644 5.44176C22.6644 4.70028 22.7852 4.08097 23.0266 3.58381C23.2681 3.08665 23.5891 2.71449 23.9897 2.46733C24.3931 2.22017 24.8349 2.09659 25.315 2.09659C25.6815 2.09659 25.9883 2.15909 26.2354 2.28409C26.4826 2.40625 26.6815 2.55966 26.832 2.74432C26.9854 2.92614 27.1033 3.10511 27.1857 3.28125H27.2539V2.18182H29.0565V8.79119C29.0565 9.34801 28.9201 9.81392 28.6474 10.1889C28.3746 10.5639 27.9968 10.8452 27.5139 11.0327C27.0337 11.223 26.4812 11.3182 25.8562 11.3182ZM25.8945 7.26989C26.1871 7.26989 26.4343 7.19744 26.636 7.05256C26.8406 6.90483 26.9968 6.6946 27.1048 6.42188C27.2156 6.14631 27.271 5.81676 27.271 5.43324C27.271 5.04972 27.217 4.71733 27.109 4.43608C27.0011 4.15199 26.8448 3.93182 26.6403 3.77557C26.4357 3.61932 26.1871 3.54119 25.8945 3.54119C25.5962 3.54119 25.3448 3.62216 25.1403 3.78409C24.9357 3.94318 24.7809 4.16477 24.6758 4.44886C24.5707 4.73295 24.5181 5.06108 24.5181 5.43324C24.5181 5.81108 24.5707 6.13778 24.6758 6.41335C24.7837 6.68608 24.9386 6.89773 25.1403 7.0483C25.3448 7.19602 25.5962 7.26989 25.8945 7.26989Z" fill="#10DC92"/>
<path d="M32.3675 8.85085C31.9499 8.85085 31.5778 8.77841 31.2511 8.63352C30.9244 8.4858 30.6658 8.26847 30.4755 7.98153C30.288 7.69176 30.1942 7.33097 30.1942 6.89915C30.1942 6.53551 30.261 6.23011 30.3945 5.98295C30.5281 5.7358 30.7099 5.53693 30.94 5.38636C31.1701 5.2358 31.4315 5.12216 31.7241 5.04545C32.0195 4.96875 32.3292 4.91477 32.6531 4.88352C33.0337 4.84375 33.3406 4.80682 33.5735 4.77273C33.8065 4.7358 33.9755 4.68182 34.0806 4.6108C34.1857 4.53977 34.2383 4.43466 34.2383 4.29545V4.26989C34.2383 4 34.1531 3.79119 33.9826 3.64347C33.815 3.49574 33.5764 3.42188 33.2667 3.42188C32.94 3.42188 32.68 3.49432 32.4869 3.6392C32.2937 3.78125 32.1658 3.96023 32.1033 4.17614L30.4244 4.03977C30.5096 3.64205 30.6772 3.2983 30.9272 3.00852C31.1772 2.71591 31.4996 2.49148 31.8945 2.33523C32.2923 2.17614 32.7525 2.09659 33.2752 2.09659C33.6388 2.09659 33.9869 2.1392 34.3192 2.22443C34.6545 2.30966 34.9514 2.44176 35.2099 2.62074C35.4712 2.79972 35.6772 3.02983 35.8278 3.31108C35.9783 3.58949 36.0536 3.9233 36.0536 4.3125V8.72727H34.332V7.8196H34.2809C34.1758 8.02415 34.0352 8.20455 33.859 8.3608C33.6829 8.51421 33.4712 8.63494 33.2241 8.72301C32.9769 8.80824 32.6914 8.85085 32.3675 8.85085ZM32.8874 7.59801C33.1545 7.59801 33.3903 7.54545 33.5948 7.44034C33.7994 7.33239 33.9599 7.1875 34.0763 7.00568C34.1928 6.82386 34.2511 6.6179 34.2511 6.38778V5.69318C34.1942 5.73011 34.1161 5.7642 34.0167 5.79545C33.9201 5.82386 33.8107 5.85085 33.6886 5.87642C33.5664 5.89915 33.4442 5.92045 33.3221 5.94034C33.1999 5.95739 33.0891 5.97301 32.9897 5.98722C32.7766 6.01847 32.5906 6.06818 32.4315 6.13636C32.2724 6.20455 32.1488 6.29688 32.0607 6.41335C31.9727 6.52699 31.9286 6.66903 31.9286 6.83949C31.9286 7.08665 32.0181 7.27557 32.1971 7.40625C32.3789 7.53409 32.609 7.59801 32.8874 7.59801Z" fill="#10DC92"/>
<path d="M38.3484 11.1818C38.1183 11.1818 37.9023 11.1634 37.7006 11.1264C37.5018 11.0923 37.337 11.0483 37.2063 10.9943L37.6154 9.6392C37.8285 9.70455 38.0202 9.74006 38.1907 9.74574C38.364 9.75142 38.5131 9.71165 38.6381 9.62642C38.766 9.54119 38.8697 9.39631 38.9492 9.19176L39.0558 8.91477L36.7077 2.18182H38.6168L39.9719 6.98864H40.0401L41.408 2.18182H43.3299L40.7859 9.43466C40.6637 9.78693 40.4975 10.0938 40.2873 10.3551C40.0799 10.6193 39.8171 10.8224 39.4989 10.9645C39.1808 11.1094 38.7972 11.1818 38.3484 11.1818Z" fill="#10DC92"/>
<path d="M45.9496 8.85085C45.532 8.85085 45.1598 8.77841 44.8331 8.63352C44.5064 8.4858 44.2479 8.26847 44.0575 7.98153C43.87 7.69176 43.7763 7.33097 43.7763 6.89915C43.7763 6.53551 43.843 6.23011 43.9766 5.98295C44.1101 5.7358 44.2919 5.53693 44.522 5.38636C44.7521 5.2358 45.0135 5.12216 45.3061 5.04545C45.6016 4.96875 45.9112 4.91477 46.2351 4.88352C46.6158 4.84375 46.9226 4.80682 47.1555 4.77273C47.3885 4.7358 47.5575 4.68182 47.6626 4.6108C47.7678 4.53977 47.8203 4.43466 47.8203 4.29545V4.26989C47.8203 4 47.7351 3.79119 47.5646 3.64347C47.397 3.49574 47.1584 3.42188 46.8487 3.42188C46.522 3.42188 46.2621 3.49432 46.0689 3.6392C45.8757 3.78125 45.7479 3.96023 45.6854 4.17614L44.0064 4.03977C44.0916 3.64205 44.2592 3.2983 44.5092 3.00852C44.7592 2.71591 45.0817 2.49148 45.4766 2.33523C45.8743 2.17614 46.3345 2.09659 46.8572 2.09659C47.2209 2.09659 47.5689 2.1392 47.9013 2.22443C48.2365 2.30966 48.5334 2.44176 48.7919 2.62074C49.0533 2.79972 49.2592 3.02983 49.4098 3.31108C49.5604 3.58949 49.6357 3.9233 49.6357 4.3125V8.72727H47.9141V7.8196H47.8629C47.7578 8.02415 47.6172 8.20455 47.4411 8.3608C47.2649 8.51421 47.0533 8.63494 46.8061 8.72301C46.559 8.80824 46.2734 8.85085 45.9496 8.85085ZM46.4695 7.59801C46.7365 7.59801 46.9723 7.54545 47.1768 7.44034C47.3814 7.33239 47.5419 7.1875 47.6584 7.00568C47.7749 6.82386 47.8331 6.6179 47.8331 6.38778V5.69318C47.7763 5.73011 47.6982 5.7642 47.5987 5.79545C47.5021 5.82386 47.3928 5.85085 47.2706 5.87642C47.1484 5.89915 47.0263 5.92045 46.9041 5.94034C46.782 5.95739 46.6712 5.97301 46.5717 5.98722C46.3587 6.01847 46.1726 6.06818 46.0135 6.13636C45.8544 6.20455 45.7308 6.29688 45.6428 6.41335C45.5547 6.52699 45.5107 6.66903 45.5107 6.83949C45.5107 7.08665 45.6001 7.27557 45.7791 7.40625C45.9609 7.53409 46.1911 7.59801 46.4695 7.59801Z" fill="#10DC92"/>
<path d="M53.9929 11.3182C53.4048 11.3182 52.9006 11.2372 52.4801 11.0753C52.0625 10.9162 51.7301 10.6989 51.483 10.4233C51.2358 10.1477 51.0753 9.83807 51.0014 9.49432L52.6804 9.26847C52.7315 9.39915 52.8125 9.52131 52.9233 9.63494C53.0341 9.74858 53.1804 9.83949 53.3622 9.90767C53.5469 9.97869 53.7713 10.0142 54.0355 10.0142C54.4304 10.0142 54.7557 9.91761 55.0114 9.72443C55.2699 9.53409 55.3991 9.21449 55.3991 8.76562V7.56818H55.3224C55.2429 7.75 55.1236 7.92188 54.9645 8.08381C54.8054 8.24574 54.6009 8.37784 54.3509 8.48011C54.1009 8.58239 53.8026 8.63352 53.456 8.63352C52.9645 8.63352 52.517 8.51989 52.1136 8.29261C51.7131 8.0625 51.3935 7.71165 51.1548 7.24006C50.919 6.76563 50.8011 6.16619 50.8011 5.44176C50.8011 4.70028 50.9219 4.08097 51.1634 3.58381C51.4048 3.08665 51.7259 2.71449 52.1264 2.46733C52.5298 2.22017 52.9716 2.09659 53.4517 2.09659C53.8182 2.09659 54.125 2.15909 54.3722 2.28409C54.6193 2.40625 54.8182 2.55966 54.9688 2.74432C55.1222 2.92614 55.2401 3.10511 55.3224 3.28125H55.3906V2.18182H57.1932V8.79119C57.1932 9.34801 57.0568 9.81392 56.7841 10.1889C56.5114 10.5639 56.1335 10.8452 55.6506 11.0327C55.1705 11.223 54.6179 11.3182 53.9929 11.3182ZM54.0312 7.26989C54.3239 7.26989 54.571 7.19744 54.7727 7.05256C54.9773 6.90483 55.1335 6.6946 55.2415 6.42188C55.3523 6.14631 55.4077 5.81676 55.4077 5.43324C55.4077 5.04972 55.3537 4.71733 55.2457 4.43608C55.1378 4.15199 54.9815 3.93182 54.777 3.77557C54.5724 3.61932 54.3239 3.54119 54.0312 3.54119C53.733 3.54119 53.4815 3.62216 53.277 3.78409C53.0724 3.94318 52.9176 4.16477 52.8125 4.44886C52.7074 4.73295 52.6548 5.06108 52.6548 5.43324C52.6548 5.81108 52.7074 6.13778 52.8125 6.41335C52.9205 6.68608 53.0753 6.89773 53.277 7.0483C53.4815 7.19602 53.733 7.26989 54.0312 7.26989Z" fill="#10DC92"/>
<path d="M60.5043 8.85085C60.0866 8.85085 59.7145 8.77841 59.3878 8.63352C59.0611 8.4858 58.8026 8.26847 58.6122 7.98153C58.4247 7.69176 58.331 7.33097 58.331 6.89915C58.331 6.53551 58.3977 6.23011 58.5312 5.98295C58.6648 5.7358 58.8466 5.53693 59.0767 5.38636C59.3068 5.2358 59.5682 5.12216 59.8608 5.04545C60.1563 4.96875 60.4659 4.91477 60.7898 4.88352C61.1705 4.84375 61.4773 4.80682 61.7102 4.77273C61.9432 4.7358 62.1122 4.68182 62.2173 4.6108C62.3224 4.53977 62.375 4.43466 62.375 4.29545V4.26989C62.375 4 62.2898 3.79119 62.1193 3.64347C61.9517 3.49574 61.7131 3.42188 61.4034 3.42188C61.0767 3.42188 60.8168 3.49432 60.6236 3.6392C60.4304 3.78125 60.3026 3.96023 60.2401 4.17614L58.5611 4.03977C58.6463 3.64205 58.8139 3.2983 59.0639 3.00852C59.3139 2.71591 59.6364 2.49148 60.0312 2.33523C60.429 2.17614 60.8892 2.09659 61.4119 2.09659C61.7756 2.09659 62.1236 2.1392 62.456 2.22443C62.7912 2.30966 63.0881 2.44176 63.3466 2.62074C63.608 2.79972 63.8139 3.02983 63.9645 3.31108C64.1151 3.58949 64.1903 3.9233 64.1903 4.3125V8.72727H62.4688V7.8196H62.4176C62.3125 8.02415 62.1719 8.20455 61.9957 8.3608C61.8196 8.51421 61.608 8.63494 61.3608 8.72301C61.1136 8.80824 60.8281 8.85085 60.5043 8.85085ZM61.0241 7.59801C61.2912 7.59801 61.527 7.54545 61.7315 7.44034C61.9361 7.33239 62.0966 7.1875 62.2131 7.00568C62.3295 6.82386 62.3878 6.6179 62.3878 6.38778V5.69318C62.331 5.73011 62.2528 5.7642 62.1534 5.79545C62.0568 5.82386 61.9474 5.85085 61.8253 5.87642C61.7031 5.89915 61.581 5.92045 61.4588 5.94034C61.3366 5.95739 61.2259 5.97301 61.1264 5.98722C60.9134 6.01847 60.7273 6.06818 60.5682 6.13636C60.4091 6.20455 60.2855 6.29688 60.1974 6.41335C60.1094 6.52699 60.0653 6.66903 60.0653 6.83949C60.0653 7.08665 60.1548 7.27557 60.3338 7.40625C60.5156 7.53409 60.7457 7.59801 61.0241 7.59801Z" fill="#10DC92"/>
<path fill-rule="evenodd" clip-rule="evenodd" d="M17.5 7C17.5 6.72386 17.7239 6.5 18 6.5H22C22.2761 6.5 22.5 6.72386 22.5 7C22.5 7.27614 22.2761 7.5 22 7.5H18C17.7239 7.5 17.5 7.27614 17.5 7Z" fill="black"/>
<path fill-rule="evenodd" clip-rule="evenodd" d="M4.5 3.5C4.5 3.22386 4.72386 3 5 3H10C10.2761 3 10.5 3.22386 10.5 3.5C10.5 3.77614 10.2761 4 10 4H5C4.72386 4 4.5 3.77614 4.5 3.5Z" fill="black"/>
<path fill-rule="evenodd" clip-rule="evenodd" d="M32.5 7C32.5 6.72386 32.7239 6.5 33 6.5H37C37.2761 6.5 37.5 6.72386 37.5 7C37.5 7.27614 37.2761 7.5 37 7.5H33C32.7239 7.5 32.5 7.27614 32.5 7Z" fill="black"/>
<path fill-rule="evenodd" clip-rule="evenodd" d="M36.5 3.5C36.5 3.22386 36.7239 3 37 3H40C40.2761 3 40.5 3.22386 40.5 3.5C40.5 3.77614 40.2761 4 40 4H37C36.7239 4 36.5 3.77614 36.5 3.5Z" fill="black"/>
<path fill-rule="evenodd" clip-rule="evenodd" d="M45.5 7C45.5 6.72386 45.7239 6.5 46 6.5H50C50.2761 6.5 50.5 6.72386 50.5 7C50.5 7.27614 50.2761 7.5 50 7.5H46C45.7239 7.5 45.5 7.27614 45.5 7Z" fill="black"/>
<path fill-rule="evenodd" clip-rule="evenodd" d="M57.5 7C57.5 6.72386 57.7239 6.5 58 6.5L61 6.5C61.2761 6.5 61.5 6.72386 61.5 7C61.5 7.27614 61.2761 7.5 61 7.5L58 7.5C57.7239 7.5 57.5 7.27614 57.5 7Z" fill="black"/>
</svg>
